<svg xmlns="http://www.w3.org/2000/svg" xmlns:xlink="http://www.w3.org/1999/xlink" width="500" zoomAndPan="magnify" viewBox="0 0 375 374.999991" height="500" preserveAspectRatio="xMidYMid meet" version="1.0"><defs><g/></defs><rect x="-37.5" width="450" fill="#ffffff" y="-37.499999" height="449.999989" fill-opacity="1"/><rect x="-37.5" width="450" fill="#8c52ff" y="-37.499999" height="449.999989" fill-opacity="1"/><g fill="#ffffff" fill-opacity="1"><g transform="translate(112.833131, 275.584112)"><g><path d="M 4.765625 -126.828125 C 4.765625 -91.875 31.25 -78.90625 67.515625 -68.3125 C 112.265625 -55.078125 137.40625 -33.890625 124.96875 -22.765625 C 102.734375 -3.171875 88.96875 -65.390625 49.515625 -65.390625 C 10.328125 -65.390625 2.125 -28.859375 6.09375 0.265625 L 11.921875 0.265625 C 11.921875 -11.390625 14.5625 -18.796875 27.796875 -18.796875 C 41.03125 -18.796875 58.25 1.859375 84.453125 1.859375 C 118.609375 1.859375 144.5625 -24.359375 144.5625 -54.015625 C 144.5625 -90.8125 98.234375 -106.703125 75.984375 -113.0625 C 31.25 -125.5 10.59375 -145.890625 23.296875 -156.46875 C 46.59375 -175.796875 55.59375 -114.109375 95.046875 -114.109375 C 134.5 -114.109375 142.4375 -150.65625 138.734375 -179.78125 L 132.640625 -179.78125 C 132.640625 -168.125 130 -160.71875 116.765625 -160.71875 C 103.78125 -160.71875 90.015625 -181.09375 63.8125 -181.09375 C 30.1875 -181.09375 4.765625 -155.953125 4.765625 -126.828125 Z M 4.765625 -126.828125 "/></g></g></g></svg>